<?xml version="1.0" standalone="no"?>
<!DOCTYPE svg PUBLIC "-//W3C//DTD SVG 20010904//EN"
 "http://www.w3.org/TR/2001/REC-SVG-20010904/DTD/svg10.dtd">
<svg version="1.0" xmlns="http://www.w3.org/2000/svg"
 width="680.000000pt" height="680.000000pt" viewBox="0 0 680.000000 680.000000"
 preserveAspectRatio="xMidYMid meet">
<metadata>
Created by potrace 1.14, written by Peter Selinger 2001-2017
</metadata>
<g transform="translate(0.000000,680.000000) scale(0.100000,-0.100000)"
fill="#000000" stroke="none">
<path d="M0 3400 l0 -3400 3400 0 3400 0 0 3400 0 3400 -3400 0 -3400 0 0
-3400z m3724 1187 c18 -24 21 -43 21 -125 0 -53 -3 -138 -8 -188 l-7 -90 177
3 c98 1 268 8 379 14 241 14 360 9 406 -18 66 -38 41 -79 -54 -87 -35 -3 -227
-8 -428 -10 -201 -3 -393 -11 -427 -17 l-61 -11 -7 -96 c-4 -52 -3 -260 4
-461 22 -740 22 -774 5 -799 -19 -28 -45 -28 -71 1 -33 36 -42 80 -59 271 -16
182 -16 265 2 865 l6 204 -73 -6 c-41 -4 -121 -13 -179 -22 -123 -17 -253 -19
-281 -5 -24 14 -25 61 -1 83 34 31 250 65 452 70 l85 2 0 195 c0 168 3 200 18
228 15 28 23 33 49 30 20 -2 38 -13 52 -31z m417 -546 c34 -35 37 -72 9 -118
-33 -55 -90 -53 -126 2 -34 52 13 138 79 144 5 1 22 -12 38 -28z m-2562 -35
c8 -18 14 -69 14 -141 l2 -112 30 22 c43 33 152 68 189 61 50 -10 94 -42 126
-93 32 -50 37 -81 19 -115 -6 -11 -9 -21 -7 -23 7 -7 163 76 207 111 46 35 78
43 99 22 9 -9 17 -5 33 16 55 70 116 104 164 92 13 -3 44 -22 69 -41 l46 -35
174 0 c96 0 181 -3 190 -6 9 -4 16 -18 16 -33 0 -47 -43 -63 -191 -69 l-129
-5 0 -26 c0 -72 -43 -147 -101 -177 -16 -8 -58 -17 -92 -20 -54 -5 -66 -3 -97
18 -44 30 -90 104 -97 155 l-5 40 -47 -47 c-54 -54 -149 -109 -239 -139 -80
-27 -254 -31 -322 -7 -24 8 -46 14 -47 12 -2 -1 -4 -172 -6 -379 -2 -327 -4
-378 -18 -392 -21 -21 -47 -10 -63 29 -21 51 -35 293 -42 731 -5 363 -4 418
11 483 9 40 24 79 32 88 24 24 66 14 82 -20z m-345 -79 c12 -9 17 -23 14 -42
-4 -40 -52 -70 -135 -85 -76 -13 -123 -34 -123 -55 0 -8 36 -32 83 -55 85 -42
152 -102 163 -147 19 -75 -61 -120 -225 -129 -83 -5 -101 -3 -131 14 -19 11
-39 32 -45 47 -8 24 -6 30 20 52 28 25 32 25 126 19 62 -4 100 -3 104 3 7 12
-60 47 -152 80 -78 29 -93 46 -95 105 -1 61 31 102 114 146 91 49 244 75 282
47z m2230 -68 c53 -42 18 -89 -66 -89 -63 0 -147 -40 -208 -100 -42 -41 -49
-55 -64 -121 -27 -118 -59 -147 -110 -96 -30 30 -38 108 -28 267 7 111 8 115
35 130 24 13 30 13 54 0 18 -10 30 -28 36 -51 l8 -36 72 47 c82 54 121 68 193
69 38 1 58 -4 78 -20z m1522 -39 c43 -11 83 -25 88 -30 15 -15 36 -12 36 4 0
13 52 30 122 40 86 11 248 -34 308 -86 66 -57 80 -133 34 -188 -34 -39 -65
-55 -141 -71 -50 -10 -64 -10 -77 0 -25 21 -20 36 30 92 29 33 44 58 42 72 -5
39 -114 83 -258 106 l-50 8 43 -46 c47 -50 105 -144 163 -265 27 -56 41 -75
52 -71 66 25 197 23 299 -4 93 -25 189 -121 214 -214 33 -122 -56 -268 -211
-346 -278 -139 -613 -14 -615 229 0 86 36 162 110 227 l54 48 -35 55 c-19 30
-49 81 -66 112 -49 92 -105 143 -183 167 -75 24 -177 27 -215 8 -17 -8 -25
-21 -25 -37 0 -21 14 -33 100 -77 124 -65 175 -115 175 -171 0 -52 -33 -99
-95 -136 l-50 -29 0 -96 c0 -88 -3 -101 -30 -150 -124 -224 -497 -289 -691
-119 -57 51 -88 120 -88 203 0 158 114 282 314 342 l75 22 -198 0 c-220 1
-236 5 -282 65 -15 20 -30 58 -37 93 -28 151 51 275 127 199 24 -24 25 -31 23
-117 -4 -131 -8 -129 232 -129 104 0 195 3 204 6 11 4 16 19 16 50 0 63 21
105 71 146 58 47 92 63 180 87 95 25 138 26 235 1z"/>
<path d="M1755 3726 c-44 -19 -135 -105 -135 -126 0 -26 51 -39 117 -30 73 9
112 42 113 95 0 36 -7 48 -37 64 -26 13 -21 13 -58 -3z"/>
<path d="M2370 3678 c-40 -66 -20 -158 36 -158 46 0 103 78 104 142 0 29 -6
32 -77 43 -40 6 -43 5 -63 -27z"/>
<path d="M4615 3405 c64 -18 75 -18 51 0 -11 8 -38 15 -60 14 l-41 0 50 -14z"/>
<path d="M4367 3281 c-173 -57 -256 -223 -164 -328 65 -74 157 -96 279 -69
161 36 265 147 244 260 l-7 35 -62 -24 c-34 -14 -99 -36 -145 -51 -136 -44
-130 -10 18 106 94 75 92 82 -30 87 -54 2 -91 -2 -133 -16z"/>
<path d="M5456 3282 l-29 -7 57 -40 c95 -67 116 -86 116 -105 0 -69 -133 -37
-242 60 -47 41 -48 41 -72 23 -31 -23 -72 -89 -80 -129 -15 -69 58 -167 143
-192 61 -19 173 -15 233 8 168 63 223 227 107 324 -17 15 -46 33 -64 41 -41
17 -130 26 -169 17z"/>
</g>
</svg>
